<?xml version="1.0" standalone="no"?><svg xmlns="http://www.w3.org/2000/svg" viewBox="0 0 1440 320"><path fill="#ffe3a1" fill-opacity="1" d="M0,256L26.7,240C53.3,224,107,192,160,181.3C213.3,171,267,181,320,197.3C373.3,213,427,235,480,224C533.3,213,587,171,640,170.7C693.3,171,747,213,800,240C853.3,267,907,277,960,272C1013.3,267,1067,245,1120,245.3C1173.3,245,1227,267,1280,240C1333.3,213,1387,139,1413,101.3L1440,64L1440,320L1413.3,320C1386.7,320,1333,320,1280,320C1226.7,320,1173,320,1120,320C1066.7,320,1013,320,960,320C906.7,320,853,320,800,320C746.7,320,693,320,640,320C586.7,320,533,320,480,320C426.7,320,373,320,320,320C266.7,320,213,320,160,320C106.7,320,53,320,27,320L0,320Z"></path></svg>